<svg xmlns="http://www.w3.org/2000/svg" width="900" height="1200" viewBox="0 0 900 1200" role="img" aria-label="Mindmap thumbnail illustration">
  <rect width="900" height="1200" rx="36" fill="#fffdf8"/>
  <rect x="104" y="126" width="692" height="948" rx="48" fill="#eef7f3"/>
  <g fill="none" stroke="#183a4a" stroke-width="12" stroke-linecap="round">
    <path d="M450 560C352 520 304 438 256 350"/>
    <path d="M450 560C548 520 596 438 644 350"/>
    <path d="M450 560C326 592 270 690 212 792"/>
    <path d="M450 560C574 592 630 690 688 792"/>
    <path d="M450 560v292"/>
  </g>
  <rect x="312" y="468" width="276" height="184" rx="42" fill="#183a4a"/>
  <circle cx="450" cy="560" r="48" fill="#d8894f"/>
  <rect x="160" y="270" width="192" height="112" rx="30" fill="#fffdf8" stroke="#d8894f" stroke-width="8"/>
  <rect x="548" y="270" width="192" height="112" rx="30" fill="#fffdf8" stroke="#d8894f" stroke-width="8"/>
  <rect x="126" y="746" width="172" height="104" rx="28" fill="#fffdf8" stroke="#6b745d" stroke-width="8"/>
  <rect x="602" y="746" width="172" height="104" rx="28" fill="#fffdf8" stroke="#6b745d" stroke-width="8"/>
  <rect x="338" y="852" width="224" height="118" rx="34" fill="#fffdf8" stroke="#d8894f" stroke-width="8"/>
  <g fill="#183a4a">
    <circle cx="256" cy="326" r="28"/>
    <circle cx="644" cy="326" r="28"/>
    <circle cx="212" cy="798" r="24"/>
    <circle cx="688" cy="798" r="24"/>
    <circle cx="450" cy="910" r="26"/>
  </g>
  <g stroke="#6b745d" stroke-width="14" stroke-linecap="round">
    <path d="M392 528h116"/>
    <path d="M392 592h88"/>
  </g>
</svg>
